<svg width="14" height="14" viewBox="0 0 14 14" fill="none" xmlns="http://www.w3.org/2000/svg">
<path d="M0.694708 1.13292C0.78798 1.03991 0.906701 0.976605 1.0359 0.950978C1.1651 0.925352 1.299 0.938553 1.42071 0.988917L12.7537 5.65492C12.8669 5.70198 12.9649 5.77927 13.0371 5.87834C13.1093 5.9774 13.1528 6.09442 13.163 6.21657C13.1731 6.33873 13.1494 6.46131 13.0945 6.57091C13.0396 6.6805 12.9556 6.77287 12.8517 6.83792L12.7617 6.88392L8.58671 8.67392C8.46916 8.72419 8.36851 8.80714 8.29671 8.91292L8.23671 9.02492L6.44671 13.2009C6.39463 13.3213 6.30825 13.4237 6.19835 13.4953C6.08845 13.567 5.9599 13.6046 5.82873 13.6037C5.69755 13.6027 5.56957 13.5632 5.46073 13.4899C5.35189 13.4167 5.26702 13.3131 5.21671 13.1919L0.549708 1.85892C0.499344 1.73721 0.486143 1.60331 0.511769 1.47411C0.537396 1.34491 0.601703 1.22619 0.694708 1.13292Z" fill="white"/>
</svg>
