<svg width="53" height="53" viewBox="0 0 53 53" fill="none" xmlns="http://www.w3.org/2000/svg">
<g clip-path="url(#clip0_18_35)">
<path d="M38.356 20.1426C39.337 19.9343 40.3017 20.5608 40.5104 21.5417C42.0509 28.789 37.8972 35.9219 31.0728 38.2868L31.8516 41.951C32.0599 42.9319 31.4332 43.8958 30.4524 44.1044C29.4714 44.313 28.507 43.6872 28.2982 42.7063L27.5196 39.0431C20.3226 39.6593 13.6255 34.8316 12.0849 27.5837C11.8766 26.6028 12.5031 25.638 13.484 25.4293C14.465 25.2208 15.4296 25.8475 15.6383 26.8284C16.8896 32.7153 22.6765 36.4732 28.5634 35.222C34.4503 33.9707 38.2083 28.184 36.957 22.297C36.7487 21.3161 37.3752 20.3513 38.356 20.1426ZM22.9002 8.57396C26.8247 7.74004 30.6825 10.2459 31.5167 14.1704L33.4047 23.053C34.2386 26.9774 31.7335 30.835 27.8092 31.6694C23.8847 32.5035 20.0264 29.9985 19.192 26.0741L17.3039 17.1914C16.4697 13.2668 18.9755 9.40817 22.9002 8.57396Z" fill="#FF6259"/>
</g>
<defs>
<clipPath id="clip0_18_35">
<rect width="43.9998" height="44.0019" fill="white" transform="translate(0.379883 9.44995) rotate(-11.9999)"/>
</clipPath>
</defs>
</svg>
