<svg width="52" height="51" viewBox="0 0 52 51" fill="none" xmlns="http://www.w3.org/2000/svg">
<g clip-path="url(#clip0_18_26)">
<path d="M27.9472 6.13266C38.4747 7.23914 46.1122 16.6707 45.0057 27.1982C44.6184 30.8827 43.2085 34.218 41.0884 36.9456L40.655 37.4823C40.4012 37.7857 40.1374 38.08 39.8658 38.3666L39.8728 38.4027L39.113 39.1202C39.1098 39.1232 39.1064 39.126 39.1032 39.129C39.0546 39.1749 39.0046 39.2193 38.9554 39.2646C38.8704 39.3432 38.7855 39.4219 38.6991 39.4989C38.6453 39.5469 38.5902 39.5935 38.5359 39.6408C38.4461 39.719 38.3562 39.797 38.265 39.8735C38.2214 39.9101 38.1776 39.9463 38.1337 39.9825C38.0277 40.0699 37.9208 40.1563 37.8129 40.2414C37.7778 40.269 37.7423 40.2961 37.7071 40.3235C37.6065 40.4017 37.505 40.4785 37.4029 40.5547C37.351 40.5935 37.2996 40.6327 37.2473 40.6709C37.1488 40.7429 37.0498 40.8141 36.95 40.8842C36.9058 40.9152 36.8619 40.9466 36.8174 40.9773C36.3576 41.2943 35.8831 41.5904 35.3964 41.8668C35.3606 41.8871 35.3247 41.9071 35.2889 41.9272C35.1656 41.9962 35.0418 42.0644 34.9169 42.1307C34.8611 42.1603 34.8048 42.1889 34.7487 42.218C34.6505 42.2689 34.5521 42.3194 34.453 42.3686C34.3781 42.4058 34.3028 42.4422 34.2274 42.4785C34.1417 42.5196 34.0555 42.5597 33.9692 42.5996C33.8913 42.6356 33.8134 42.6716 33.735 42.7066C33.6363 42.7506 33.5372 42.7939 33.4376 42.8363C33.3699 42.8652 33.3022 42.8939 33.2342 42.922C33.1616 42.9519 33.0887 42.981 33.0158 43.01C32.9137 43.0506 32.8115 43.091 32.7086 43.1299C32.5427 43.1926 32.3762 43.2538 32.2083 43.312C32.1695 43.3255 32.1302 43.3376 32.0913 43.3508C31.9643 43.3939 31.837 43.4361 31.7089 43.4765C31.6417 43.4977 31.5744 43.5183 31.5069 43.5388C31.3898 43.5743 31.2723 43.6088 31.1543 43.6421C31.0687 43.6664 30.9827 43.6892 30.8966 43.7123C30.8254 43.7313 30.754 43.75 30.6825 43.7683C30.5723 43.7965 30.4618 43.8241 30.3508 43.8503C30.2672 43.8701 30.1833 43.8887 30.0994 43.9073C30.0177 43.9255 29.9361 43.944 29.8541 43.9611C29.7349 43.9859 29.6152 44.0088 29.4952 44.0314C29.4338 44.0429 29.3725 44.0551 29.3109 44.066C29.1751 44.0902 29.0388 44.1127 28.9021 44.134C28.8535 44.1416 28.805 44.1498 28.7563 44.157C28.3835 44.2121 28.0076 44.2558 27.629 44.2889C27.5759 44.2935 27.5227 44.2974 27.4695 44.3016C27.3379 44.312 27.2061 44.3211 27.0739 44.3287C26.9947 44.3333 26.9154 44.3365 26.8361 44.3401C26.7232 44.3452 26.6102 44.3504 26.4969 44.3535C26.4156 44.3558 26.3343 44.3571 26.2528 44.3583C26.1478 44.3599 26.0427 44.3607 25.9374 44.3605C25.8427 44.3604 25.7479 44.3596 25.6529 44.3581C25.5622 44.3566 25.4715 44.3538 25.3806 44.3511C25.2842 44.3482 25.1877 44.3457 25.091 44.3413C24.9779 44.3361 24.8647 44.3294 24.7513 44.3223C24.6714 44.3172 24.5914 44.3129 24.5114 44.3069C24.3243 44.2928 24.1369 44.2762 23.9491 44.2566C23.9462 44.2563 23.9431 44.257 23.9402 44.2567L23.9394 44.2556C23.7529 44.236 23.5674 44.213 23.3828 44.1882C23.3259 44.1806 23.2693 44.1716 23.2126 44.1635C23.0736 44.1436 22.9348 44.124 22.7969 44.1011C22.7524 44.0938 22.7083 44.085 22.6639 44.0773C22.5149 44.0516 22.3666 44.0243 22.2189 43.9952C22.181 43.9878 22.1432 43.9802 22.1054 43.9725C21.9685 43.9447 21.832 43.916 21.6963 43.8853C21.6341 43.8713 21.5722 43.8568 21.5103 43.8422C21.3843 43.8124 21.2591 43.7809 21.1342 43.7486C21.0803 43.7347 21.0263 43.7215 20.9726 43.7071C20.8419 43.6722 20.7121 43.635 20.5826 43.5974C20.5343 43.5834 20.4858 43.57 20.4377 43.5556C20.0805 43.4489 19.7278 43.3332 19.3805 43.2069C19.3311 43.1889 19.2823 43.1695 19.2331 43.1511C19.1225 43.1099 19.0123 43.0683 18.9027 43.0251C18.8266 42.9951 18.7513 42.9634 18.6758 42.9325C18.5747 42.8912 18.474 42.8495 18.3738 42.8065C18.3142 42.7809 18.2547 42.755 18.1954 42.7288C18.0874 42.6811 17.9799 42.6326 17.873 42.583C17.8161 42.5566 17.7592 42.5302 17.7026 42.5032C17.5955 42.4522 17.4892 42.3998 17.3832 42.3469C17.319 42.3149 17.2549 42.2829 17.1911 42.2501C17.0834 42.1948 16.9766 42.1382 16.8701 42.0809C16.8286 42.0586 16.787 42.0364 16.7456 42.0138C16.2656 41.751 15.7988 41.4685 15.3459 41.1676C15.3106 41.1441 15.2756 41.1203 15.2405 41.0966C15.1276 41.0204 15.0156 40.9433 14.9045 40.8649C14.861 40.8342 14.818 40.8027 14.7748 40.7717C14.6661 40.6936 14.5581 40.6147 14.4512 40.5344C14.4162 40.5082 14.3812 40.4821 14.3465 40.4557C14.2321 40.3686 14.1184 40.2807 14.0061 40.1911C13.9816 40.1716 13.9571 40.152 13.9327 40.1323C13.3646 39.6747 12.8239 39.1861 12.3132 38.6689C12.2947 38.6501 12.2767 38.6309 12.2583 38.6121C12.1511 38.5026 12.0451 38.3921 11.9406 38.2802C11.9123 38.2498 11.8841 38.2193 11.856 38.1888C11.7625 38.0874 11.6701 37.9851 11.5789 37.8818C11.5472 37.8458 11.5157 37.8098 11.4842 37.7736C11.3993 37.676 11.3154 37.5774 11.2325 37.4781C11.1984 37.4373 11.1642 37.3966 11.1305 37.3555C11.0477 37.2546 10.9665 37.1524 10.8857 37.0499C10.8548 37.0106 10.8236 36.9716 10.793 36.9321C10.6799 36.7861 10.5674 36.6396 10.4585 36.4904L10.165 36.0776L9.57192 35.2179L9.5853 35.184C9.47983 35.0115 9.37695 34.8374 9.27689 34.6616L8.9992 34.1552C7.2766 30.9042 6.46871 27.1212 6.8817 23.1912C7.98818 12.6637 17.4198 5.02621 27.9472 6.13266ZM27.5465 9.94559C19.1245 9.06049 11.5799 15.17 10.6947 23.5919C10.4069 26.3308 10.8578 28.9726 11.8862 31.3243C13.8655 29.2503 16.7496 28.0826 19.8236 28.4055L31.2606 29.6076C34.3346 29.9307 36.9128 31.6728 38.4178 34.1128C39.913 32.0262 40.9048 29.5366 41.1927 26.7974C42.0779 18.3754 35.9684 10.8308 27.5465 9.94559ZM27.1459 13.7567C30.3037 14.0888 32.5949 16.9184 32.2634 20.0762C31.9314 23.2343 29.1019 25.5254 25.9438 25.1937C22.7858 24.8616 20.4944 22.0323 20.8264 18.8741C21.1586 15.7164 23.988 13.425 27.1459 13.7567Z" fill="#00D743"/>
</g>
<defs>
<clipPath id="clip0_18_26">
<rect width="46.0022" height="46.0022" fill="white" transform="translate(5.67969 0.119873) rotate(5.99997)"/>
</clipPath>
</defs>
</svg>
