<svg width="33" height="32" viewBox="0 0 33 32" fill="none" xmlns="http://www.w3.org/2000/svg">
<g clip-path="url(#clip0_18_534)">
<rect x="0.5" width="32" height="32" rx="5.33" fill="white"/>
<g clip-path="url(#clip1_18_534)">
<g clip-path="url(#clip2_18_534)">
<path d="M16.5004 9.66687C18.1648 9.66687 19.7611 10.3281 20.938 11.505C22.1149 12.6819 22.7761 14.2782 22.7761 15.9426C22.7761 17.6071 22.1149 19.2033 20.938 20.3803C19.7611 21.5572 18.1648 22.2184 16.5004 22.2184C14.8359 22.2184 13.2397 21.5572 12.0627 20.3803C10.8858 19.2033 10.2246 17.6071 10.2246 15.9426C10.2246 14.2782 10.8858 12.6819 12.0627 11.505C13.2397 10.3281 14.8359 9.66687 16.5004 9.66687ZM14.7968 16.7793C14.7002 16.6732 14.5701 16.6032 14.4282 16.5812C14.2864 16.5592 14.1412 16.5864 14.0169 16.6584C13.8927 16.7303 13.7968 16.8426 13.7452 16.9766C13.6936 17.1106 13.6894 17.2582 13.7333 17.3949L13.7851 17.5106L13.8914 17.6829C14.1877 18.1266 14.5922 18.4875 15.0667 18.7314C15.5412 18.9754 16.07 19.0944 16.6033 19.0771C17.1365 19.0599 17.6566 18.907 18.1144 18.6329C18.5721 18.3588 18.9524 17.9726 19.2194 17.5106C19.2908 17.3675 19.3049 17.2025 19.2588 17.0493C19.2128 16.8961 19.1101 16.7663 18.9717 16.6861C18.8332 16.606 18.6695 16.5816 18.5137 16.618C18.358 16.6544 18.2219 16.7488 18.1333 16.8819C17.973 17.1592 17.7447 17.391 17.47 17.5555C17.1952 17.72 16.8831 17.8118 16.563 17.8221C16.2429 17.8325 15.9255 17.7611 15.6407 17.6147C15.3559 17.4683 15.1131 17.2518 14.9352 16.9855L14.8712 16.8819L14.7968 16.7784V16.7793ZM14.618 13.4306C14.385 13.4306 14.1602 13.517 13.9872 13.6731C13.8142 13.8292 13.7053 14.044 13.6816 14.2758L13.6768 14.3718V14.3784C13.6768 14.628 13.776 14.8674 13.9525 15.0439C14.129 15.2204 14.3684 15.3196 14.618 15.3196H14.6246C14.8575 15.3197 15.0821 15.2334 15.2551 15.0774C15.4281 14.9215 15.5371 14.707 15.5611 14.4753L15.5658 14.3784V14.3718C15.5658 13.8852 15.1959 13.4843 14.7216 13.4353L14.6246 13.4306H14.618ZM18.3827 13.4306C18.1497 13.4306 17.9249 13.517 17.7519 13.6731C17.5789 13.8292 17.47 14.044 17.4463 14.2758L17.4416 14.3718V14.3784C17.4416 14.628 17.5407 14.8674 17.7172 15.0439C17.8937 15.2204 18.1331 15.3196 18.3827 15.3196H18.3893C18.6222 15.3197 18.8468 15.2334 19.0198 15.0774C19.1928 14.9215 19.3018 14.707 19.3258 14.4753L19.3305 14.3784V14.3718C19.3305 13.8852 18.9606 13.4843 18.4863 13.4353L18.3893 13.4306H18.3837H18.3827Z" fill="#12785A"/>
</g>
</g>
<rect x="1" y="0.5" width="31" height="31" rx="4.83" stroke="url(#paint0_radial_18_534)"/>
</g>
<defs>
<radialGradient id="paint0_radial_18_534" cx="0" cy="0" r="1" gradientTransform="matrix(16 -16 16 27.1851 16.5 16)" gradientUnits="userSpaceOnUse">
<stop stop-color="#12785A"/>
<stop offset="0.935784" stop-color="white"/>
</radialGradient>
<clipPath id="clip0_18_534">
<rect x="0.5" width="32" height="32" rx="5.33" fill="white"/>
</clipPath>
<clipPath id="clip1_18_534">
<rect width="16" height="16" fill="white" transform="translate(8.5 8)"/>
</clipPath>
<clipPath id="clip2_18_534">
<rect width="16" height="16" fill="white" transform="translate(8.5 8)"/>
</clipPath>
</defs>
</svg>
