<svg width="32" height="32" viewBox="0 0 32 32" fill="none" xmlns="http://www.w3.org/2000/svg">
<g clip-path="url(#clip0_67_2)">
<g clip-path="url(#clip1_67_2)">
<path d="M15.5 9.271C16.3842 9.271 17.2322 9.62226 17.8575 10.2475C18.4827 10.8727 18.834 11.7208 18.834 12.605V13.938H20.166L20.301 13.952C20.4514 13.9828 20.5866 14.0647 20.6837 14.1836C20.7808 14.3026 20.8339 14.4514 20.834 14.605V20.605C20.834 21.1354 20.6233 21.6441 20.2482 22.0192C19.8731 22.3943 19.3644 22.605 18.834 22.605H12.167C11.6366 22.605 11.1279 22.3943 10.7528 22.0192C10.3777 21.6441 10.167 21.1354 10.167 20.605V14.605L10.18 14.47C10.2112 14.3198 10.2932 14.185 10.4121 14.0881C10.531 13.9912 10.6796 13.9382 10.833 13.938H12.166V12.605C12.166 11.7208 12.5173 10.8727 13.1425 10.2475C13.7677 9.62226 14.6158 9.271 15.5 9.271ZM17.166 17.271C16.649 17.271 16.223 17.665 16.171 18.169L16.166 18.271V18.278C16.166 18.5432 16.2713 18.7976 16.4589 18.9851C16.6464 19.1726 16.9008 19.278 17.166 19.278H17.173C17.4204 19.2781 17.6591 19.1864 17.8429 19.0207C18.0267 18.8551 18.1425 18.6271 18.168 18.381L18.173 18.278V18.271C18.1731 18.0236 18.0814 17.7849 17.9157 17.6011C17.75 17.4173 17.5221 17.3015 17.276 17.276L17.173 17.271H17.166ZM15.5 10.605C14.9696 10.605 14.4609 10.8157 14.0858 11.1908C13.7107 11.5659 13.5 12.0746 13.5 12.605V13.938H17.5V12.605C17.5 12.0746 17.2893 11.5659 16.9142 11.1908C16.5391 10.8157 16.0304 10.605 15.5 10.605Z" fill="#12785A"/>
</g>
</g>
<rect x="0.5" y="0.5" width="31" height="31" rx="4.83" stroke="url(#paint0_radial_67_2)"/>
<defs>
<radialGradient id="paint0_radial_67_2" cx="0" cy="0" r="1" gradientTransform="matrix(16 -16 16 27.1851 16 16)" gradientUnits="userSpaceOnUse">
<stop stop-color="#12785A"/>
<stop offset="0.935784" stop-color="white"/>
</radialGradient>
<clipPath id="clip0_67_2">
<rect width="16" height="16" fill="white" transform="translate(7.5 8)"/>
</clipPath>
<clipPath id="clip1_67_2">
<rect width="16" height="16" fill="white" transform="translate(7.5 8)"/>
</clipPath>
</defs>
</svg>
